<svg width="26" height="32" viewBox="0 0 26 32" fill="none" xmlns="http://www.w3.org/2000/svg">
<path d="M1 8H5" stroke="#6F6F83" stroke-width="1.28252" stroke-linecap="round"/>
<path d="M1 13H5" stroke="#6F6F83" stroke-width="1.28252" stroke-linecap="round"/>
<path d="M1 17H5" stroke="#6F6F83" stroke-width="1.28252" stroke-linecap="round"/>
<path d="M1 22H5" stroke="#6F6F83" stroke-width="1.28252" stroke-linecap="round"/>
<path d="M1 26H5" stroke="#6F6F83" stroke-width="1.28252" stroke-linecap="round"/>
<rect x="3.33705" y="3.51995" width="21.4298" height="26.5106" rx="1.58185" transform="rotate(0.359255 3.33705 3.51995)" stroke="#6F6F83" stroke-width="1.5"/>
<path d="M14.72 16.7738C15.375 16.7738 16.0152 16.5796 16.5597 16.2158C17.1043 15.8519 17.5287 15.3347 17.7793 14.7297C18.03 14.1246 18.0955 13.4588 17.9678 12.8165C17.84 12.1741 17.5246 11.5841 17.0615 11.121C16.5984 10.6579 16.0084 10.3425 15.366 10.2148C14.7237 10.087 14.0579 10.1526 13.4528 10.4032C12.8478 10.6538 12.3306 11.0782 11.9668 11.6228C11.6029 12.1673 11.4087 12.8075 11.4087 13.4625C11.4087 14.3407 11.7576 15.1829 12.3786 15.8039C12.9996 16.4249 13.8418 16.7738 14.72 16.7738ZM14.72 11.0972C15.1878 11.0972 15.6451 11.2359 16.0341 11.4958C16.4231 11.7557 16.7262 12.1251 16.9052 12.5573C17.0843 12.9895 17.1311 13.4651 17.0398 13.9239C16.9486 14.3827 16.7233 14.8042 16.3925 15.135C16.0617 15.4657 15.6403 15.691 15.1815 15.7823C14.7227 15.8735 14.2471 15.8267 13.8149 15.6477C13.3827 15.4687 13.0133 15.1655 12.7534 14.7765C12.4935 14.3876 12.3548 13.9303 12.3548 13.4625C12.3548 12.8352 12.604 12.2336 13.0476 11.79C13.4911 11.3464 14.0927 11.0972 14.72 11.0972Z" fill="#6F6F83" stroke="#6F6F83" stroke-width="0.5"/>
<path d="M15.1932 17.72H14.2471C12.867 17.72 11.5435 18.2682 10.5676 19.2441C9.59175 20.2199 9.04352 21.5434 9.04352 22.9235C9.04352 23.049 9.09336 23.1693 9.18207 23.258C9.27079 23.3467 9.39111 23.3966 9.51657 23.3966H19.9237C20.0491 23.3966 20.1694 23.3467 20.2582 23.258C20.3469 23.1693 20.3967 23.049 20.3967 22.9235C20.3967 21.5434 19.8485 20.2199 18.8726 19.2441C17.8968 18.2682 16.5732 17.72 15.1932 17.72ZM10.018 22.4505C10.1343 21.4101 10.6299 20.449 11.41 19.7509C12.1902 19.0528 13.2002 18.6666 14.2471 18.6661H15.1932C16.24 18.6666 17.2501 19.0528 18.0302 19.7509C18.8103 20.449 19.3059 21.4101 19.4222 22.4505H10.018Z" fill="#6F6F83" stroke="#6F6F83" stroke-width="0.5"/>
</svg>
