<svg width="68" height="15" viewBox="0 0 68 15" fill="none" xmlns="http://www.w3.org/2000/svg">
<rect width="67.7143" height="15" rx="7.5" fill="#FFD401"/>
<path d="M10.6143 2.66523L11.9834 5.80105L15.4582 6.10523C15.513 6.10964 15.5654 6.12987 15.6085 6.16337C15.6517 6.19688 15.6838 6.24216 15.7007 6.2935C15.7177 6.34485 15.7188 6.39997 15.7038 6.45192C15.6889 6.50387 15.6586 6.55033 15.6168 6.58543L12.9866 8.83263L13.7622 12.165C13.7703 12.2 13.7713 12.2362 13.765 12.2716C13.7588 12.307 13.7455 12.3408 13.7259 12.3711C13.7063 12.4015 13.6808 12.4277 13.6508 12.4483C13.6209 12.469 13.587 12.4836 13.5513 12.4914C13.4773 12.5067 13.4002 12.4925 13.3369 12.4521L10.352 10.7056L7.35917 12.4606C7.3279 12.4792 7.29319 12.4915 7.25704 12.4969C7.22089 12.5023 7.18401 12.5006 7.14853 12.492C7.11305 12.4833 7.07966 12.4678 7.0503 12.4465C7.02094 12.4251 6.99617 12.3983 6.97744 12.3675C6.95868 12.3373 6.94617 12.3039 6.94064 12.269C6.93511 12.2341 6.93666 12.1984 6.9452 12.1641L7.72172 8.83178L5.09497 6.58543C5.03975 6.5374 5.00592 6.47009 5.00071 6.3979C4.99549 6.32572 5.01932 6.2544 5.06708 6.19922C5.11972 6.14635 5.19132 6.11569 5.26666 6.11378L8.72832 5.80959L10.0975 2.66523C10.1196 2.61608 10.1557 2.57429 10.2016 2.54496C10.2475 2.51562 10.3011 2.5 10.3559 2.5C10.4107 2.5 10.4642 2.51562 10.5101 2.54496C10.556 2.57429 10.5922 2.61608 10.6143 2.66523Z" fill="#FDFDFD"/>
<path d="M19.3599 11V4.45455H23.5531V5.44851H20.5456V7.2255H23.2654V8.21946H20.5456V11H19.3599ZM24.6565 11H23.3909L25.6952 4.45455H27.159L29.4665 11H28.2009L26.4527 5.79688H26.4015L24.6565 11ZM24.698 8.43359H28.1498V9.38601H24.698V8.43359ZM30.4573 4.45455L32.1608 9.60653H32.2279L33.9282 4.45455H35.2321L32.9246 11H31.4608L29.1565 4.45455H30.4573ZM41.5914 7.72727C41.5914 8.43253 41.4593 9.03658 41.1951 9.53942C40.933 10.0401 40.5751 10.4237 40.1213 10.69C39.6696 10.9563 39.1571 11.0895 38.584 11.0895C38.0108 11.0895 37.4973 10.9563 37.0435 10.69C36.5918 10.4215 36.2338 10.0369 35.9696 9.53622C35.7075 9.03338 35.5765 8.4304 35.5765 7.72727C35.5765 7.02202 35.7075 6.41903 35.9696 5.91832C36.2338 5.41548 36.5918 5.03089 37.0435 4.76456C37.4973 4.49822 38.0108 4.36506 38.584 4.36506C39.1571 4.36506 39.6696 4.49822 40.1213 4.76456C40.5751 5.03089 40.933 5.41548 41.1951 5.91832C41.4593 6.41903 41.5914 7.02202 41.5914 7.72727ZM40.3993 7.72727C40.3993 7.23082 40.3215 6.81214 40.166 6.47124C40.0126 6.1282 39.7995 5.86932 39.5268 5.6946C39.2541 5.51776 38.9398 5.42933 38.584 5.42933C38.2281 5.42933 37.9139 5.51776 37.6411 5.6946C37.3684 5.86932 37.1543 6.1282 36.9987 6.47124C36.8453 6.81214 36.7686 7.23082 36.7686 7.72727C36.7686 8.22372 36.8453 8.64347 36.9987 8.98651C37.1543 9.32741 37.3684 9.58629 37.6411 9.76314C37.9139 9.93786 38.2281 10.0252 38.584 10.0252C38.9398 10.0252 39.2541 9.93786 39.5268 9.76314C39.7995 9.58629 40.0126 9.32741 40.166 8.98651C40.3215 8.64347 40.3993 8.22372 40.3993 7.72727ZM42.7124 11V4.45455H45.167C45.6698 4.45455 46.0917 4.5419 46.4326 4.71662C46.7756 4.89133 47.0345 5.13636 47.2092 5.4517C47.3861 5.76491 47.4745 6.13033 47.4745 6.54794C47.4745 6.96768 47.385 7.33203 47.206 7.64098C47.0292 7.9478 46.7682 8.18537 46.423 8.35369C46.0778 8.51989 45.6538 8.60298 45.151 8.60298H43.4028V7.61861H44.9912C45.2852 7.61861 45.526 7.57812 45.7135 7.49716C45.901 7.41406 46.0395 7.29368 46.129 7.13601C46.2206 6.97621 46.2664 6.78018 46.2664 6.54794C46.2664 6.3157 46.2206 6.11754 46.129 5.95348C46.0374 5.78729 45.8978 5.66158 45.7103 5.57635C45.5228 5.48899 45.281 5.44531 44.9848 5.44531H43.8982V11H42.7124ZM46.0938 8.03409L47.7142 11H46.3911L44.7994 8.03409H46.0938ZM49.7517 4.45455V11H48.5659V4.45455H49.7517ZM50.748 5.44851V4.45455H55.9703V5.44851H53.9472V11H52.7711V5.44851H50.748ZM56.9771 11V4.45455H61.2342V5.44851H58.1628V7.2255H61.0137V8.21946H58.1628V10.006H61.2597V11H56.9771Z" fill="#FDFDFD"/>
</svg>
