<svg width="27" height="27" viewBox="0 0 27 27" fill="none" xmlns="http://www.w3.org/2000/svg">
<path d="M16.8346 24.2916V17.9339C16.8346 17.6528 16.723 17.3833 16.5243 17.1846C16.3256 16.9859 16.0561 16.8743 15.775 16.8743H11.5366C11.2555 16.8743 10.986 16.9859 10.7873 17.1846C10.5886 17.3833 10.4769 17.6528 10.4769 17.9339V24.2916C10.4769 24.5726 10.3653 24.8421 10.1666 25.0408C9.96787 25.2396 9.69835 25.3512 9.41732 25.3512H3.05962C2.77859 25.3512 2.50907 25.2396 2.31035 25.0408C2.11164 24.8421 2 24.5726 2 24.2916V12.0398C2.00237 11.8931 2.03406 11.7484 2.09321 11.6142C2.15235 11.48 2.23775 11.359 2.34438 11.2583L12.9406 1.62901C13.1359 1.4503 13.391 1.3512 13.6558 1.3512C13.9205 1.3512 14.1757 1.4503 14.371 1.62901L24.9672 11.2583C25.0738 11.359 25.1592 11.48 25.2184 11.6142C25.2775 11.7484 25.3092 11.8931 25.3116 12.0398V24.2916C25.3116 24.5726 25.1999 24.8421 25.0012 25.0408C24.8025 25.2396 24.533 25.3512 24.252 25.3512H17.8943C17.6132 25.3512 17.3437 25.2396 17.145 25.0408C16.9463 24.8421 16.8346 24.5726 16.8346 24.2916Z" stroke="#5F5F75" stroke-width="2.2" stroke-linecap="round" stroke-linejoin="round"/>
</svg>
