<svg width="34" height="16" viewBox="0 0 34 16" fill="none" xmlns="http://www.w3.org/2000/svg">
<rect y="0.5" width="34" height="15" rx="7.5" fill="#FF9900"/>
<path d="M12.0245 4.95455V11.5H10.9698L7.88565 7.04155H7.83132V11.5H6.6456V4.95455H7.70668L10.7876 9.41619H10.8452V4.95455H12.0245ZM13.3165 11.5V4.95455H17.5736V5.94851H14.5022V7.7255H17.3531V8.71946H14.5022V10.506H17.5992V11.5H13.3165ZM20.1608 11.5L18.3135 4.95455H19.5887L20.768 9.76456H20.8287L22.088 4.95455H23.2481L24.5106 9.76776H24.5681L25.7474 4.95455H27.0226L25.1753 11.5H24.0056L22.6952 6.90732H22.6441L21.3305 11.5H20.1608Z" fill="#FDFDFD"/>
</svg>
