<svg width="70" height="15" viewBox="0 0 70 15" fill="none" xmlns="http://www.w3.org/2000/svg">
<rect width="70" height="15" rx="7.5" fill="#FF0101"/>
<path d="M12.304 3.14587L14.8542 5.69742V9.3045L12.304 11.8542H8.69693L6.14584 9.30404V5.69696L8.69693 3.14587H12.304ZM11.9241 4.06254H9.07643L7.06297 6.07692V8.92454L9.07643 10.9385H11.9241L13.938 8.92454V6.07646L11.9241 4.063V4.06254ZM10.0417 8.87504H10.9583V9.79171H10.0417V8.87504ZM10.0417 5.20837H10.9583V7.95837H10.0417V5.20837Z" fill="#FDFDFD"/>
<path d="M23.2028 6.25391C23.1729 5.97479 23.0472 5.75746 22.8256 5.60192C22.6062 5.44638 22.3207 5.36861 21.9691 5.36861C21.7219 5.36861 21.5099 5.40589 21.3331 5.48047C21.1563 5.55504 21.021 5.65625 20.9272 5.78409C20.8335 5.91193 20.7855 6.05788 20.7834 6.22195C20.7834 6.35831 20.8143 6.47656 20.8761 6.5767C20.94 6.67685 21.0263 6.76207 21.1349 6.83239C21.2436 6.90057 21.364 6.9581 21.4961 7.00497C21.6282 7.05185 21.7614 7.09126 21.8956 7.12322L22.5092 7.27663C22.7564 7.33416 22.994 7.41193 23.2219 7.50994C23.4521 7.60795 23.6577 7.73153 23.8388 7.88068C24.022 8.02983 24.1669 8.20987 24.2734 8.42081C24.38 8.63175 24.4332 8.87891 24.4332 9.16229C24.4332 9.54581 24.3352 9.88352 24.1392 10.1754C23.9432 10.4652 23.6598 10.6921 23.2891 10.8562C22.9205 11.0181 22.4741 11.0991 21.9499 11.0991C21.4407 11.0991 20.9986 11.0202 20.6236 10.8626C20.2507 10.7049 19.9588 10.4748 19.7479 10.1722C19.5391 9.86967 19.4261 9.50107 19.4091 9.06641H20.5756C20.5927 9.29439 20.663 9.48402 20.7866 9.6353C20.9102 9.78658 21.071 9.8995 21.2692 9.97408C21.4695 10.0487 21.6932 10.0859 21.9403 10.0859C22.1982 10.0859 22.424 10.0476 22.6179 9.97088C22.8139 9.89205 22.9673 9.78338 23.0781 9.64489C23.1889 9.50426 23.2454 9.3402 23.2475 9.1527C23.2454 8.98224 23.1953 8.84162 23.0973 8.73082C22.9993 8.6179 22.8619 8.52415 22.685 8.44957C22.5103 8.37287 22.3058 8.30469 22.0714 8.24503L21.3267 8.05327C20.7876 7.91477 20.3615 7.7049 20.0483 7.42365C19.7372 7.14027 19.5817 6.7642 19.5817 6.29545C19.5817 5.9098 19.6861 5.57209 19.8949 5.28232C20.1058 4.99254 20.3924 4.76776 20.7546 4.60795C21.1168 4.44602 21.527 4.36506 21.9851 4.36506C22.4496 4.36506 22.8565 4.44602 23.206 4.60795C23.5575 4.76776 23.8335 4.99041 24.0337 5.27592C24.234 5.5593 24.3374 5.8853 24.3438 6.25391H23.2028ZM25.4903 11V4.45455H27.9449C28.4477 4.45455 28.8696 4.5483 29.2105 4.7358C29.5535 4.9233 29.8124 5.18111 29.9871 5.50923C30.164 5.83523 30.2524 6.20597 30.2524 6.62145C30.2524 7.04119 30.164 7.41406 29.9871 7.74006C29.8103 8.06605 29.5493 8.3228 29.2041 8.5103C28.8589 8.69567 28.4339 8.78835 27.9289 8.78835H26.3021V7.81357H27.7691C28.0631 7.81357 28.3039 7.76243 28.4914 7.66016C28.6789 7.55788 28.8174 7.41726 28.9069 7.23828C28.9985 7.0593 29.0443 6.85369 29.0443 6.62145C29.0443 6.3892 28.9985 6.18466 28.9069 6.00781C28.8174 5.83097 28.6778 5.69354 28.4882 5.59553C28.3007 5.49538 28.0589 5.44531 27.7627 5.44531H26.676V11H25.4903ZM31.3934 11H30.1278L32.4321 4.45455H33.8959L36.2034 11H34.9378L33.1895 5.79688H33.1384L31.3934 11ZM31.4349 8.43359H34.8866V9.38601H31.4349V8.43359ZM37.0655 4.45455H38.5165L40.4597 9.19744H40.5364L42.4796 4.45455H43.9306V11H42.7928V6.5032H42.7321L40.9231 10.9808H40.073L38.264 6.49361H38.2033V11H37.0655V4.45455ZM45.2218 4.45455H46.6728L48.6159 9.19744H48.6926L50.6358 4.45455H52.0868V11H50.949V6.5032H50.8883L49.0794 10.9808H48.2292L46.4203 6.49361H46.3596V11H45.2218V4.45455ZM53.378 11V4.45455H57.6351V5.44851H54.5637V7.2255H57.4146V8.21946H54.5637V10.006H57.6607V11H53.378ZM58.8448 11V4.45455H61.2994C61.8022 4.45455 62.2241 4.5419 62.565 4.71662C62.908 4.89133 63.1669 5.13636 63.3416 5.4517C63.5185 5.76491 63.6069 6.13033 63.6069 6.54794C63.6069 6.96768 63.5174 7.33203 63.3384 7.64098C63.1616 7.9478 62.9006 8.18537 62.5554 8.35369C62.2102 8.51989 61.7862 8.60298 61.2834 8.60298H59.5352V7.61861H61.1236C61.4176 7.61861 61.6584 7.57812 61.8459 7.49716C62.0334 7.41406 62.1719 7.29368 62.2614 7.13601C62.353 6.97621 62.3988 6.78018 62.3988 6.54794C62.3988 6.3157 62.353 6.11754 62.2614 5.95348C62.1697 5.78729 62.0302 5.66158 61.8427 5.57635C61.6552 5.48899 61.4134 5.44531 61.1172 5.44531H60.0305V11H58.8448ZM62.2262 8.03409L63.8466 11H62.5234L60.9318 8.03409H62.2262Z" fill="#FDFDFD"/>
</svg>
